<svg width="128" height="128" viewBox="0 0 128 128" fill="none" xmlns="http://www.w3.org/2000/svg">
<path d="M27.8888 15.7241C12.9504 24.3586 0.552254 31.6414 0.358965 31.8897C0.0828381 32.2759 0 38.8414 0 64.0276C0 93.7655 0.0276127 95.6966 0.497028 96.2207C1.24257 97.0759 55.0873 128 55.8053 128C56.1642 128 61.0517 125.324 66.6847 122.097L76.8737 116.193L79.1656 118.621C82.0373 121.655 84.5225 123.531 87.836 125.076C98.7154 130.234 111.307 128.083 119.729 119.614C122.297 117.021 123.898 114.759 125.389 111.614C130.939 99.7517 127.405 85.3241 117.023 77.5172C115.808 76.5793 114.068 75.4759 113.184 75.0069L111.555 74.2069V53.269C111.555 33.7379 111.528 32.3035 111.086 31.7793C110.313 30.8966 56.4956 0 55.75 0C55.3911 0.0275879 42.8549 7.08965 27.8888 15.7241ZM80.2977 18.8966C93.6899 26.6207 104.652 33.0207 104.652 33.1034C104.652 33.269 80.988 46.9793 80.4634 47.1172C80.0492 47.2276 34.7368 17.0759 34.9301 16.8552C35.2338 16.5517 55.6396 4.74483 55.8053 4.8C55.8881 4.8 66.9056 11.1448 80.2977 18.8966ZM53.0992 34.5103C65.4145 42.731 75.6036 49.5172 75.7416 49.6276C75.8521 49.7379 71.4064 52.4414 65.8563 55.6414L55.7776 61.4621L47.8252 56.8552C43.4624 54.3448 32.4725 48 23.388 42.7586C14.331 37.5172 6.90317 33.1862 6.90317 33.1034C6.90317 32.8828 29.9045 19.6138 30.3187 19.6138C30.4844 19.5862 40.7563 26.3172 53.0992 34.5103ZM30.5949 52L53.5686 65.2414V93.6C53.5686 109.214 53.4858 121.903 53.3753 121.848C53.2373 121.793 51.1111 120.552 48.5983 119.09C34.8748 111.172 30.0978 108.414 17.8654 101.379L4.44564 93.6552L4.41803 65.2966V36.9379L6.01957 37.8483C6.90317 38.3448 17.9759 44.7172 30.5949 52ZM107.027 72.469C106.944 72.5517 105.757 72.4138 104.348 72.1655C96.534 70.8138 88.5263 72.9655 82.203 78.069C77.7297 81.6828 74.2505 87.1172 72.7042 92.8276C72.0691 95.2276 71.9863 96.1379 71.9587 99.7241C71.9587 104.303 72.29 106.097 73.7811 110.014C74.2505 111.255 74.5819 112.331 74.5267 112.386C74.4438 112.469 64.9174 117.986 58.2076 121.848C58.0695 121.903 57.9867 109.214 57.9867 93.6L58.0143 65.2414L67.872 59.531L77.7297 53.8207L77.8678 62.9517L78.0059 72.0552L78.6686 72.5793C79.5522 73.2966 80.7947 73.2414 81.5955 72.4138L82.2858 71.7517V61.4621V51.1724L94.6563 44.0552L106.999 36.9655L107.082 54.6759C107.11 64.3862 107.082 72.4138 107.027 72.469ZM103.548 76.4138C112.77 77.8759 119.977 84.2483 122.794 93.4345C123.429 95.5862 123.512 96.3034 123.512 99.8621C123.512 103.421 123.429 104.138 122.766 106.345C120.309 114.428 114.537 120.193 106.447 122.648C104.238 123.31 103.52 123.393 99.958 123.393C96.3959 123.393 95.678 123.31 93.5242 122.676C78.8342 118.207 71.9863 102.262 78.9999 88.8276C83.5836 80 93.7451 74.869 103.548 76.4138Z" fill="#363B3F"/>
<path d="M111.224 87.5035C111.003 87.6966 107.91 91.6966 104.376 96.4139C100.814 101.104 97.6661 105.297 97.3071 105.71L96.7273 106.428L93.0548 102.124C89.1614 97.4897 88.3054 96.8277 87.0352 97.4346C86.0964 97.9035 85.4613 99.0346 85.6822 99.8897C85.9307 100.772 94.9048 111.448 95.8989 112C96.5616 112.359 96.7273 112.359 97.4176 112C97.8318 111.752 101.532 107.145 105.619 101.766C109.733 96.3587 113.405 91.5587 113.847 91.0621C115.283 89.3518 114.565 87.1725 112.577 87.1725C112.08 87.1725 111.472 87.338 111.224 87.5035Z" fill="#7FB069"/>
</svg>
